REM DIRINDEX 1\2\4\18,1\2\4\19,1\2\5\20,1\2\5\21,1\2\6\22,1\2\7\23,1\2\8\24,1\2\8\25,1\2\9\26,1\2\10\27,1\3\11\28,1\3\11\29,1\3\11\30,1\3\11\31,1\3\12\32,1\3\12\33,1\3\12\34,1\3\12\35,1\3\13\36,1\3\13\37,1\3\14\38,1\3\14\39,1\3\15\40,1\3\15\41,1\3\15\42,1\3\16\43,1\3\16\44,1\3\17\45,1\3\17\46
REM DIRNAME folder01,folder02,folder03,folder04,folder05,folder06,folder07,folder08,folder09,folder10,folder11,folder12,folder13,folder14,folder15,folder16,folder17,folder18,folder19,folder20,folder21,folder22,folder23,folder24,folder25,folder26,folder27,folder28,folder29,folder30,folder31,folder32,folder33,folder34,folder35,folder36,folder37,folder38,folder39,folder40,folder41,folder42,folder43,folder44,folder45,folder46
TITLE ""
FILE "05.mp3" MP3
  TRACK 01 AUDIO
    TITLE "0:"
    INDEX 01 00:00:00
  TRACK 02 AUDIO
    TITLE "20:cjc024_0801"
    INDEX 01 00:00:19
  TRACK 03 AUDIO
    TITLE "0:"
    INDEX 01 00:01:24
  TRACK 04 AUDIO
    TITLE "21:cjc024_0802"
    INDEX 01 00:01:48
  TRACK 05 AUDIO
    TITLE "0:"
    INDEX 01 00:03:35
  TRACK 06 AUDIO
    TITLE "20:cjc024_0803"
    INDEX 01 00:04:38
  TRACK 07 AUDIO
    TITLE "0:"
    INDEX 01 00:05:38
  TRACK 08 AUDIO
    TITLE "21:cjc024_0804"
    INDEX 01 00:05:69
  TRACK 09 AUDIO
    TITLE "0:"
    INDEX 01 00:08:15
  TRACK 10 AUDIO
    TITLE "20:cjc024_0805"
    INDEX 01 00:09:20
  TRACK 11 AUDIO
    TITLE "0:"
    INDEX 01 00:10:18
  TRACK 12 AUDIO
    TITLE "21:cjc024_0806"
    INDEX 01 00:10:45
  TRACK 13 AUDIO
    TITLE "0:"
    INDEX 01 00:13:06
  TRACK 14 AUDIO
    TITLE "20:cjc024_0807"
    INDEX 01 00:14:07
  TRACK 15 AUDIO
    TITLE "0:"
    INDEX 01 00:15:13
  TRACK 16 AUDIO
    TITLE "21:cjc024_0808"
    INDEX 01 00:15:36
  TRACK 17 AUDIO
    TITLE "0:"
    INDEX 01 00:17:55
  TRACK 18 AUDIO
    TITLE "20:cjc024_0809"
    INDEX 01 00:18:70
  TRACK 19 AUDIO
    TITLE "0:"
    INDEX 01 00:19:65
  TRACK 20 AUDIO
    TITLE "21:cjc024_0810"
    INDEX 01 00:20:20
  TRACK 21 AUDIO
    TITLE "0:"
    INDEX 01 00:22:46
  TRACK 22 AUDIO
    TITLE "20:cjc024_0811"
    INDEX 01 00:23:46
  TRACK 23 AUDIO
    TITLE "0:"
    INDEX 01 00:24:39
  TRACK 24 AUDIO
    TITLE "21:cjc024_0812"
    INDEX 01 00:24:71
  TRACK 25 AUDIO
    TITLE "0:"
    INDEX 01 00:27:26
  TRACK 26 AUDIO
    TITLE "20:cjc024_0813"
    INDEX 01 00:28:25
  TRACK 27 AUDIO
    TITLE "0:"
    INDEX 01 00:29:40
  TRACK 28 AUDIO
    TITLE "21:cjc024_0814"
    INDEX 01 00:29:64
  TRACK 29 AUDIO
    TITLE "0:"
    INDEX 01 00:32:33
  TRACK 30 AUDIO
    TITLE "20:cjc024_0815"
    INDEX 01 00:33:32
  TRACK 31 AUDIO
    TITLE "0:"
    INDEX 01 00:34:22
  TRACK 32 AUDIO
    TITLE "21:cjc024_0816"
    INDEX 01 00:34:47
  TRACK 33 AUDIO
    TITLE "0:"
    INDEX 01 00:36:25
  TRACK 34 AUDIO
    TITLE "20:cjc024_0817"
    INDEX 01 00:37:26
  TRACK 35 AUDIO
    TITLE "0:"
    INDEX 01 00:38:24
  TRACK 36 AUDIO
    TITLE "21:cjc024_0818"
    INDEX 01 00:38:49
  TRACK 37 AUDIO
    TITLE "0:"
    INDEX 01 00:40:62
  TRACK 38 AUDIO
    TITLE "20:cjc024_0819"
    INDEX 01 00:41:63
  TRACK 39 AUDIO
    TITLE "0:"
    INDEX 01 00:42:72
  TRACK 40 AUDIO
    TITLE "21:cjc024_0820"
    INDEX 01 00:43:23
  TRACK 41 AUDIO
    TITLE "0:"
    INDEX 01 00:45:30
  TRACK 42 AUDIO
    TITLE "20:cjc024_0821"
    INDEX 01 00:46:31
  TRACK 43 AUDIO
    TITLE "0:"
    INDEX 01 00:47:23
  TRACK 44 AUDIO
    TITLE "21:cjc024_0822"
    INDEX 01 00:47:46
  TRACK 45 AUDIO
    TITLE "0:"
    INDEX 01 00:49:72
  TRACK 46 AUDIO
    TITLE "20:cjc024_0823"
    INDEX 01 00:50:74
  TRACK 47 AUDIO
    TITLE "0:"
    INDEX 01 00:51:71
  TRACK 48 AUDIO
    TITLE "21:cjc024_0824"
    INDEX 01 00:52:20
  TRACK 49 AUDIO
    TITLE "0:"
    INDEX 01 00:54:25
  TRACK 50 AUDIO
    TITLE "20:cjc024_0825"
    INDEX 01 00:55:24
  TRACK 51 AUDIO
    TITLE "0:"
    INDEX 01 00:56:24
  TRACK 52 AUDIO
    TITLE "21:cjc024_0826"
    INDEX 01 00:56:49
  TRACK 53 AUDIO
    TITLE "0:"
    INDEX 01 00:59:16
  TRACK 54 AUDIO
    TITLE "20:cjc024_0827"
    INDEX 01 01:00:17
  TRACK 55 AUDIO
    TITLE "0:"
    INDEX 01 01:01:33
  TRACK 56 AUDIO
    TITLE "21:cjc024_0828"
    INDEX 01 01:01:58
  TRACK 57 AUDIO
    TITLE "0:"
    INDEX 01 01:04:03
  TRACK 58 AUDIO
    TITLE "20:cjc024_0829"
    INDEX 01 01:05:05
  TRACK 59 AUDIO
    TITLE "0:"
    INDEX 01 01:06:06
  TRACK 60 AUDIO
    TITLE "21:cjc024_0830"
    INDEX 01 01:06:30
  TRACK 61 AUDIO
    TITLE "0:"
    INDEX 01 01:08:31
  TRACK 62 AUDIO
    TITLE "20:cjc024_0831"
    INDEX 01 01:09:30
  TRACK 63 AUDIO
    TITLE "0:"
    INDEX 01 01:10:30
  TRACK 64 AUDIO
    TITLE "21:cjc024_0832"
    INDEX 01 01:10:53
  TRACK 65 AUDIO
    TITLE "0:"
    INDEX 01 01:13:14
  TRACK 66 AUDIO
    TITLE "20:cjc024_0833"
    INDEX 01 01:14:16
  TRACK 67 AUDIO
    TITLE "0:"
    INDEX 01 01:15:25
  TRACK 68 AUDIO
    TITLE "21:cjc024_0834"
    INDEX 01 01:15:50
  TRACK 69 AUDIO
    TITLE "0:"
    INDEX 01 01:17:67
  TRACK 70 AUDIO
    TITLE "20:cjc024_0835"
    INDEX 01 01:18:68
  TRACK 71 AUDIO
    TITLE "0:"
    INDEX 01 01:20:08
  TRACK 72 AUDIO
    TITLE "21:cjc024_0836"
    INDEX 01 01:20:32
  TRACK 73 AUDIO
    TITLE "0:"
    INDEX 01 01:22:42
  TRACK 74 AUDIO
    TITLE "20:cjc024_0837"
    INDEX 01 01:23:44
  TRACK 75 AUDIO
    TITLE "0:"
    INDEX 01 01:24:32
  TRACK 76 AUDIO
    TITLE "21:cjc024_0838"
    INDEX 01 01:24:59
  TRACK 77 AUDIO
    TITLE "0:"
    INDEX 01 01:27:20
  TRACK 78 AUDIO
    TITLE "20:cjc024_0839"
    INDEX 01 01:28:22
  TRACK 79 AUDIO
    TITLE "0:"
    INDEX 01 01:29:21
  TRACK 80 AUDIO
    TITLE "21:cjc024_0840"
    INDEX 01 01:29:45
  TRACK 81 AUDIO
    TITLE "0:"
    INDEX 01 01:32:06
  TRACK 82 AUDIO
    TITLE "20:cjc024_0841"
    INDEX 01 01:33:07
  TRACK 83 AUDIO
    TITLE "0:"
    INDEX 01 01:34:05
  TRACK 84 AUDIO
    TITLE "21:cjc024_0842"
    INDEX 01 01:34:30
  TRACK 85 AUDIO
    TITLE "0:"
    INDEX 01 01:36:47
  TRACK 86 AUDIO
    TITLE "20:cjc024_0843"
    INDEX 01 01:37:46
  TRACK 87 AUDIO
    TITLE "0:"
    INDEX 01 01:38:53
  TRACK 88 AUDIO
    TITLE "21:cjc024_0844"
    INDEX 01 01:39:02
  TRACK 89 AUDIO
    TITLE "0:"
    INDEX 01 01:41:09
  TRACK 90 AUDIO
    TITLE "20:cjc024_0845"
    INDEX 01 01:42:04
  TRACK 91 AUDIO
    TITLE "0:"
    INDEX 01 01:43:68
  TRACK 92 AUDIO
    TITLE "21:cjc024_0846"
    INDEX 01 01:44:15
  TRACK 93 AUDIO
    TITLE "0:"
    INDEX 01 01:46:68
  TRACK 94 AUDIO
    TITLE "20:cjc024_0847"
    INDEX 01 01:47:72
  TRACK 95 AUDIO
    TITLE "0:"
    INDEX 01 01:49:06
  TRACK 96 AUDIO
    TITLE "21:cjc024_0848"
    INDEX 01 01:49:33
  TRACK 97 AUDIO
    TITLE "0:"
    INDEX 01 01:51:74
  TRACK 98 AUDIO
    TITLE "20:cjc024_0849"
    INDEX 01 01:53:00
  TRACK 99 AUDIO
    TITLE "0:"
    INDEX 01 01:54:50
  TRACK 100 AUDIO
    TITLE "21:cjc024_0850"
    INDEX 01 01:54:72
  TRACK 101 AUDIO
    TITLE "0:"
    INDEX 01 01:57:39
  TRACK 102 AUDIO
    TITLE "20:cjc024_0851"
    INDEX 01 01:58:36
  TRACK 103 AUDIO
    TITLE "0:"
    INDEX 01 01:59:48
  TRACK 104 AUDIO
    TITLE "21:cjc024_0852"
    INDEX 01 02:00:06
  TRACK 105 AUDIO
    TITLE "0:"
    INDEX 01 02:02:56
  TRACK 106 AUDIO
    TITLE "20:cjc024_0853"
    INDEX 01 02:03:59
  TRACK 107 AUDIO
    TITLE "0:"
    INDEX 01 02:04:59
  TRACK 108 AUDIO
    TITLE "21:cjc024_0854"
    INDEX 01 02:05:09
  TRACK 109 AUDIO
    TITLE "0:"
    INDEX 01 02:07:45
  TRACK 110 AUDIO
    TITLE "20:cjc024_0855"
    INDEX 01 02:08:60
  TRACK 111 AUDIO
    TITLE "0:"
    INDEX 01 02:09:64
  TRACK 112 AUDIO
    TITLE "21:cjc024_0856"
    INDEX 01 02:10:20
  TRACK 113 AUDIO
    TITLE "0:"
    INDEX 01 02:12:62
  TRACK 114 AUDIO
    TITLE "20:cjc024_0857"
    INDEX 01 02:13:65
  TRACK 115 AUDIO
    TITLE "0:"
    INDEX 01 02:14:67
  TRACK 116 AUDIO
    TITLE "21:cjc024_0858"
    INDEX 01 02:15:19
  TRACK 117 AUDIO
    TITLE "0:"
    INDEX 01 02:17:40
  TRACK 118 AUDIO
    TITLE "20:cjc024_0859"
    INDEX 01 02:18:39
  TRACK 119 AUDIO
    TITLE "0:"
    INDEX 01 02:19:70
  TRACK 120 AUDIO
    TITLE "21:cjc024_0860"
    INDEX 01 02:20:24
  TRACK 121 AUDIO
    TITLE "0:"
    INDEX 01 02:22:64
  TRACK 122 AUDIO
    TITLE "20:cjc024_0861"
    INDEX 01 02:23:66
  TRACK 123 AUDIO
    TITLE "0:"
    INDEX 01 02:24:67
  TRACK 124 AUDIO
    TITLE "21:cjc024_0862"
    INDEX 01 02:25:20
  TRACK 125 AUDIO
    TITLE "0:"
    INDEX 01 02:28:08
  TRACK 126 AUDIO
    TITLE "20:cjc024_0863"
    INDEX 01 02:29:08
  TRACK 127 AUDIO
    TITLE "0:"
    INDEX 01 02:30:21
  TRACK 128 AUDIO
    TITLE "21:cjc024_0864"
    INDEX 01 02:30:56
  TRACK 129 AUDIO
    TITLE "0:"
    INDEX 01 02:33:45
  TRACK 130 AUDIO
    TITLE "20:cjc024_0865"
    INDEX 01 02:34:44
  TRACK 131 AUDIO
    TITLE "0:"
    INDEX 01 02:35:49
  TRACK 132 AUDIO
    TITLE "21:cjc024_0866"
    INDEX 01 02:36:04
  TRACK 133 AUDIO
    TITLE "0:"
    INDEX 01 02:38:50
  TRACK 134 AUDIO
    TITLE "20:cjc024_0867"
    INDEX 01 02:39:49
  TRACK 135 AUDIO
    TITLE "0:"
    INDEX 01 02:40:47
  TRACK 136 AUDIO
    TITLE "21:cjc024_0868"
    INDEX 01 02:41:07
  TRACK 137 AUDIO
    TITLE "0:"
    INDEX 01 02:43:21
  TRACK 138 AUDIO
    TITLE "20:cjc024_0869"
    INDEX 01 02:44:19
  TRACK 139 AUDIO
    TITLE "0:"
    INDEX 01 02:45:22
  TRACK 140 AUDIO
    TITLE "21:cjc024_0870"
    INDEX 01 02:45:48
  TRACK 141 AUDIO
    TITLE "0:"
    INDEX 01 02:48:40
  TRACK 142 AUDIO
    TITLE "20:cjc024_0871"
    INDEX 01 02:49:42
  TRACK 143 AUDIO
    TITLE "0:"
    INDEX 01 02:50:57
  TRACK 144 AUDIO
    TITLE "21:cjc024_0872"
    INDEX 01 02:51:07
  TRACK 145 AUDIO
    TITLE "0:"
    INDEX 01 02:53:55
  TRACK 146 AUDIO
    TITLE "20:cjc024_0873"
    INDEX 01 02:54:54
  TRACK 147 AUDIO
    TITLE "0:"
    INDEX 01 02:55:64
  TRACK 148 AUDIO
    TITLE "21:cjc024_0874"
    INDEX 01 02:56:14
  TRACK 149 AUDIO
    TITLE "0:"
    INDEX 01 02:58:54
  TRACK 150 AUDIO
    TITLE "20:cjc024_0875"
    INDEX 01 02:59:52
  TRACK 151 AUDIO
    TITLE "0:"
    INDEX 01 03:00:57
  TRACK 152 AUDIO
    TITLE "21:cjc024_0876"
    INDEX 01 03:01:08
  TRACK 153 AUDIO
    TITLE "0:"
    INDEX 01 03:03:42
  TRACK 154 AUDIO
    TITLE "20:cjc024_0877"
    INDEX 01 03:04:39
  TRACK 155 AUDIO
    TITLE "0:"
    INDEX 01 03:06:05
  TRACK 156 AUDIO
    TITLE "21:cjc024_0878"
    INDEX 01 03:06:30
  TRACK 157 AUDIO
    TITLE "0:"
    INDEX 01 03:08:59
  TRACK 158 AUDIO
    TITLE "20:cjc024_0879"
    INDEX 01 03:09:58
  TRACK 159 AUDIO
    TITLE "0:"
    INDEX 01 03:11:10
  TRACK 160 AUDIO
    TITLE "21:cjc024_0880"
    INDEX 01 03:11:35
  TRACK 161 AUDIO
    TITLE "0:"
    INDEX 01 03:14:04
  TRACK 162 AUDIO
    TITLE "20:cjc024_0881"
    INDEX 01 03:15:04
  TRACK 163 AUDIO
    TITLE "0:"
    INDEX 01 03:16:03
  TRACK 164 AUDIO
    TITLE "21:cjc024_0882"
    INDEX 01 03:16:27
  TRACK 165 AUDIO
    TITLE "0:"
    INDEX 01 03:18:24
  TRACK 166 AUDIO
    TITLE "20:cjc024_0883"
    INDEX 01 03:19:21
  TRACK 167 AUDIO
    TITLE "0:"
    INDEX 01 03:20:21
  TRACK 168 AUDIO
    TITLE "21:cjc024_0884"
    INDEX 01 03:20:44
  TRACK 169 AUDIO
    TITLE "0:"
    INDEX 01 03:22:59
  TRACK 170 AUDIO
    TITLE "20:cjc024_0885"
    INDEX 01 03:23:58
  TRACK 171 AUDIO
    TITLE "0:"
    INDEX 01 03:24:63
  TRACK 172 AUDIO
    TITLE "21:cjc024_0886"
    INDEX 01 03:25:12
  TRACK 173 AUDIO
    TITLE "0:"
    INDEX 01 03:27:36
  TRACK 174 AUDIO
    TITLE "20:cjc024_0887"
    INDEX 01 03:28:36
  TRACK 175 AUDIO
    TITLE "0:"
    INDEX 01 03:29:33
  TRACK 176 AUDIO
    TITLE "21:cjc024_0888"
    INDEX 01 03:29:59
  TRACK 177 AUDIO
    TITLE "0:"
    INDEX 01 03:32:10
  TRACK 178 AUDIO
    TITLE "20:cjc024_0889"
    INDEX 01 03:33:09
  TRACK 179 AUDIO
    TITLE "0:"
    INDEX 01 03:34:13
  TRACK 180 AUDIO
    TITLE "21:cjc024_0890"
    INDEX 01 03:34:36
  TRACK 181 AUDIO
    TITLE "0:"
    INDEX 01 03:37:29
  TRACK 182 AUDIO
    TITLE "20:cjc024_0891"
    INDEX 01 03:38:30
  TRACK 183 AUDIO
    TITLE "0:"
    INDEX 01 03:39:34
  TRACK 184 AUDIO
    TITLE "21:cjc024_0892"
    INDEX 01 03:39:57
  TRACK 185 AUDIO
    TITLE "0:"
    INDEX 01 03:42:03
  TRACK 186 AUDIO
    TITLE "20:cjc024_0893"
    INDEX 01 03:43:02
  TRACK 187 AUDIO
    TITLE "0:"
    INDEX 01 03:43:71
  TRACK 188 AUDIO
    TITLE "21:cjc024_0894"
    INDEX 01 03:44:19
  TRACK 189 AUDIO
    TITLE "0:"
    INDEX 01 03:46:18
  TRACK 190 AUDIO
    TITLE "20:cjc024_0895"
    INDEX 01 03:47:19
  TRACK 191 AUDIO
    TITLE "0:"
    INDEX 01 03:48:48
  TRACK 192 AUDIO
    TITLE "21:cjc024_0896"
    INDEX 01 03:48:74
  TRACK 193 AUDIO
    TITLE "0:"
    INDEX 01 03:51:31
  TRACK 194 AUDIO
    TITLE "20:cjc024_0897"
    INDEX 01 03:52:30
  TRACK 195 AUDIO
    TITLE "0:"
    INDEX 01 03:53:34
  TRACK 196 AUDIO
    TITLE "21:cjc024_0898"
    INDEX 01 03:53:57
  TRACK 197 AUDIO
    TITLE "0:"
    INDEX 01 03:56:16
  TRACK 198 AUDIO
    TITLE "20:cjc024_0899"
    INDEX 01 03:57:12
  TRACK 199 AUDIO
    TITLE "0:"
    INDEX 01 03:58:09
  TRACK 200 AUDIO
    TITLE "21:cjc024_0900"
    INDEX 01 03:58:35
  TRACK 201 AUDIO
    TITLE "0:"
    INDEX 01 04:00:22
  TRACK 202 AUDIO
    TITLE "20:cjc024_0901"
    INDEX 01 04:01:21
  TRACK 203 AUDIO
    TITLE "0:"
    INDEX 01 04:02:41
  TRACK 204 AUDIO
    TITLE "21:cjc024_0902"
    INDEX 01 04:02:64
  TRACK 205 AUDIO
    TITLE "0:"
    INDEX 01 04:04:59
  TRACK 206 AUDIO
    TITLE "20:cjc024_0903"
    INDEX 01 04:05:60
  TRACK 207 AUDIO
    TITLE "0:"
    INDEX 01 04:06:74
  TRACK 208 AUDIO
    TITLE "21:cjc024_0904"
    INDEX 01 04:07:24
  TRACK 209 AUDIO
    TITLE "0:"
    INDEX 01 04:10:13
  TRACK 210 AUDIO
    TITLE "20:cjc024_0905"
    INDEX 01 04:11:12
  TRACK 211 AUDIO
    TITLE "0:"
    INDEX 01 04:12:13
  TRACK 212 AUDIO
    TITLE "21:cjc024_0906"
    INDEX 01 04:12:51
  TRACK 213 AUDIO
    TITLE "0:"
    INDEX 01 04:15:26
  TRACK 214 AUDIO
    TITLE "20:cjc024_0907"
    INDEX 01 04:16:25
  TRACK 215 AUDIO
    TITLE "0:"
    INDEX 01 04:17:50
  TRACK 216 AUDIO
    TITLE "21:cjc024_0908"
    INDEX 01 04:17:73
  TRACK 217 AUDIO
    TITLE "0:"
    INDEX 01 04:20:58
  TRACK 218 AUDIO
    TITLE "20:cjc024_0909"
    INDEX 01 04:21:59
  TRACK 219 AUDIO
    TITLE "0:"
    INDEX 01 04:22:59
  TRACK 220 AUDIO
    TITLE "21:cjc024_0910"
    INDEX 01 04:23:09
  TRACK 221 AUDIO
    TITLE "0:"
    INDEX 01 04:25:00
  TRACK 222 AUDIO
    TITLE "20:cjc024_0911"
    INDEX 01 04:26:00
  TRACK 223 AUDIO
    TITLE "0:"
    INDEX 01 04:27:23
  TRACK 224 AUDIO
    TITLE "21:cjc024_0912"
    INDEX 01 04:27:48
  TRACK 225 AUDIO
    TITLE "0:"
    INDEX 01 04:30:33
  TRACK 226 AUDIO
    TITLE "20:cjc024_0913"
    INDEX 01 04:31:42
  TRACK 227 AUDIO
    TITLE "0:"
    INDEX 01 04:32:44
  TRACK 228 AUDIO
    TITLE "21:cjc024_0914"
    INDEX 01 04:33:02
  TRACK 229 AUDIO
    TITLE "0:"
    INDEX 01 04:35:63
  TRACK 230 AUDIO
    TITLE "20:cjc024_0915"
    INDEX 01 04:36:63
  TRACK 231 AUDIO
    TITLE "0:"
    INDEX 01 04:37:72
  TRACK 232 AUDIO
    TITLE "21:cjc024_0916"
    INDEX 01 04:38:23
  TRACK 233 AUDIO
    TITLE "0:"
    INDEX 01 04:40:55
  TRACK 234 AUDIO
    TITLE "20:cjc024_0917"
    INDEX 01 04:41:54
  TRACK 235 AUDIO
    TITLE "0:"
    INDEX 01 04:42:66
  TRACK 236 AUDIO
    TITLE "21:cjc024_0918"
    INDEX 01 04:43:18
  TRACK 237 AUDIO
    TITLE "0:"
    INDEX 01 04:45:60
  TRACK 238 AUDIO
    TITLE "20:cjc024_0919"
    INDEX 01 04:46:63
  TRACK 239 AUDIO
    TITLE "0:"
    INDEX 01 04:48:15
  TRACK 240 AUDIO
    TITLE "21:cjc024_0920"
    INDEX 01 04:48:43
  TRACK 241 AUDIO
    TITLE "0:"
    INDEX 01 04:51:27
  TRACK 242 AUDIO
    TITLE "20:cjc024_0921"
    INDEX 01 04:52:35
  TRACK 243 AUDIO
    TITLE "0:"
    INDEX 01 04:53:36
  TRACK 244 AUDIO
    TITLE "21:cjc024_0922"
    INDEX 01 04:53:67
  TRACK 245 AUDIO
    TITLE "0:"
    INDEX 01 04:55:66
  TRACK 246 AUDIO
    TITLE "20:cjc024_0923"
    INDEX 01 04:56:68
  TRACK 247 AUDIO
    TITLE "0:"
    INDEX 01 04:57:67
  TRACK 248 AUDIO
    TITLE "21:cjc024_0924"
    INDEX 01 04:58:18
  TRACK 249 AUDIO
    TITLE "0:"
    INDEX 01 05:00:01
  TRACK 250 AUDIO
    TITLE "20:cjc024_0925"
    INDEX 01 05:01:06
  TRACK 251 AUDIO
    TITLE "0:"
    INDEX 01 05:02:25
  TRACK 252 AUDIO
    TITLE "21:cjc024_0926"
    INDEX 01 05:02:51
  TRACK 253 AUDIO
    TITLE "0:"
    INDEX 01 05:05:16
  TRACK 254 AUDIO
    TITLE "20:cjc024_0927"
    INDEX 01 05:06:15
  TRACK 255 AUDIO
    TITLE "0:"
    INDEX 01 05:07:46
  TRACK 256 AUDIO
    TITLE "21:cjc024_0928"
    INDEX 01 05:07:69
  TRACK 257 AUDIO
    TITLE "0:"
    INDEX 01 05:10:11
  TRACK 258 AUDIO
    TITLE "20:cjc024_0929"
    INDEX 01 05:11:12
  TRACK 259 AUDIO
    TITLE "0:"
    INDEX 01 05:12:39
  TRACK 260 AUDIO
    TITLE "21:cjc024_0930"
    INDEX 01 05:12:63
  TRACK 261 AUDIO
    TITLE "0:"
    INDEX 01 05:15:24
  TRACK 262 AUDIO
    TITLE "20:cjc024_0931"
    INDEX 01 05:16:25
  TRACK 263 AUDIO
    TITLE "0:"
    INDEX 01 05:17:25
  TRACK 264 AUDIO
    TITLE "21:cjc024_0932"
    INDEX 01 05:17:50
  TRACK 265 AUDIO
    TITLE "0:"
    INDEX 01 05:19:61
  TRACK 266 AUDIO
    TITLE "20:cjc024_0933"
    INDEX 01 05:20:60
  TRACK 267 AUDIO
    TITLE "0:"
    INDEX 01 05:21:64
  TRACK 268 AUDIO
    TITLE "21:cjc024_0934"
    INDEX 01 05:22:12
  TRACK 269 AUDIO
    TITLE "0:"
    INDEX 01 05:24:44
  TRACK 270 AUDIO
    TITLE "20:cjc024_0935"
    INDEX 01 05:25:46
  TRACK 271 AUDIO
    TITLE "0:"
    INDEX 01 05:26:55
  TRACK 272 AUDIO
    TITLE "21:cjc024_0936"
    INDEX 01 05:27:05
  TRACK 273 AUDIO
    TITLE "0:"
    INDEX 01 05:29:20
  TRACK 274 AUDIO
    TITLE "20:cjc024_0937"
    INDEX 01 05:30:19
  TRACK 275 AUDIO
    TITLE "0:"
    INDEX 01 05:31:44
  TRACK 276 AUDIO
    TITLE "21:cjc024_0938"
    INDEX 01 05:31:70
  TRACK 277 AUDIO
    TITLE "0:"
    INDEX 01 05:34:49
  TRACK 278 AUDIO
    TITLE "20:cjc024_0939"
    INDEX 01 05:35:50
  TRACK 279 AUDIO
    TITLE "0:"
    INDEX 01 05:36:65
  TRACK 280 AUDIO
    TITLE "21:cjc024_0940"
    INDEX 01 05:37:16
  TRACK 281 AUDIO
    TITLE "0:"
    INDEX 01 05:39:48
  TRACK 282 AUDIO
    TITLE "20:cjc024_0941"
    INDEX 01 05:40:47
  TRACK 283 AUDIO
    TITLE "0:"
    INDEX 01 05:41:43
  TRACK 284 AUDIO
    TITLE "21:cjc024_0942"
    INDEX 01 05:41:70
  TRACK 285 AUDIO
    TITLE "0:"
    INDEX 01 05:44:24
  TRACK 286 AUDIO
    TITLE "20:cjc024_0943"
    INDEX 01 05:45:23
  TRACK 287 AUDIO
    TITLE "0:"
    INDEX 01 05:46:28
  TRACK 288 AUDIO
    TITLE "21:cjc024_0944"
    INDEX 01 05:46:54
  TRACK 289 AUDIO
    TITLE "0:"
    INDEX 01 05:48:72
  TRACK 290 AUDIO
    TITLE "20:cjc024_0945"
    INDEX 01 05:49:72
  TRACK 291 AUDIO
    TITLE "0:"
    INDEX 01 05:50:71
  TRACK 292 AUDIO
    TITLE "21:cjc024_0946"
    INDEX 01 05:51:20
  TRACK 293 AUDIO
    TITLE "0:"
    INDEX 01 05:53:34
  TRACK 294 AUDIO
    TITLE "20:cjc024_0947"
    INDEX 01 05:54:34
  TRACK 295 AUDIO
    TITLE "0:"
    INDEX 01 05:55:33
  TRACK 296 AUDIO
    TITLE "21:cjc024_0948"
    INDEX 01 05:55:57
  TRACK 297 AUDIO
    TITLE "0:"
    INDEX 01 05:58:06
  TRACK 298 AUDIO
    TITLE "20:cjc024_0949"
    INDEX 01 05:59:07
  TRACK 299 AUDIO
    TITLE "0:"
    INDEX 01 06:00:34
  TRACK 300 AUDIO
    TITLE "21:cjc024_0950"
    INDEX 01 06:00:60
  TRACK 301 AUDIO
    TITLE "0:"
    INDEX 01 06:03:54
  TRACK 302 AUDIO
    TITLE "20:cjc024_0951"
    INDEX 01 06:04:56
  TRACK 303 AUDIO
    TITLE "0:"
    INDEX 01 06:05:65
  TRACK 304 AUDIO
    TITLE "21:cjc024_0952"
    INDEX 01 06:06:15
  TRACK 305 AUDIO
    TITLE "0:"
    INDEX 01 06:08:32
  TRACK 306 AUDIO
    TITLE "20:cjc024_0953"
    INDEX 01 06:09:31
  TRACK 307 AUDIO
    TITLE "0:"
    INDEX 01 06:10:31
  TRACK 308 AUDIO
    TITLE "21:cjc024_0954"
    INDEX 01 06:10:54
  TRACK 309 AUDIO
    TITLE "0:"
    INDEX 01 06:12:63
  TRACK 310 AUDIO
    TITLE "20:cjc024_0955"
    INDEX 01 06:13:62
  TRACK 311 AUDIO
    TITLE "0:"
    INDEX 01 06:15:06
  TRACK 312 AUDIO
    TITLE "21:cjc024_0956"
    INDEX 01 06:15:32
  TRACK 313 AUDIO
    TITLE "0:"
    INDEX 01 06:17:64
  TRACK 314 AUDIO
    TITLE "20:cjc024_0957"
    INDEX 01 06:18:71
  TRACK 315 AUDIO
    TITLE "0:"
    INDEX 01 06:20:23
  TRACK 316 AUDIO
    TITLE "21:cjc024_0958"
    INDEX 01 06:20:55
  TRACK 317 AUDIO
    TITLE "0:"
    INDEX 01 06:23:10
  TRACK 318 AUDIO
    TITLE "20:cjc024_0959"
    INDEX 01 06:24:15
  TRACK 319 AUDIO
    TITLE "0:"
    INDEX 01 06:25:40
  TRACK 320 AUDIO
    TITLE "21:cjc024_0960"
    INDEX 01 06:25:66
  TRACK 321 AUDIO
    TITLE "0:"
    INDEX 01 06:28:31
  TRACK 322 AUDIO
    TITLE "20:cjc024_0961"
    INDEX 01 06:29:30
  TRACK 323 AUDIO
    TITLE "0:"
    INDEX 01 06:30:41
  TRACK 324 AUDIO
    TITLE "21:cjc024_0962"
    INDEX 01 06:30:71
  TRACK 325 AUDIO
    TITLE "0:"
    INDEX 01 06:33:34
  TRACK 326 AUDIO
    TITLE "20:cjc024_0963"
    INDEX 01 06:34:31
  TRACK 327 AUDIO
    TITLE "0:"
    INDEX 01 06:35:27
  TRACK 328 AUDIO
    TITLE "21:cjc024_0964"
    INDEX 01 06:35:52
  TRACK 329 AUDIO
    TITLE "0:"
    INDEX 01 06:38:11
  TRACK 330 AUDIO
    TITLE "20:cjc024_0965"
    INDEX 01 06:39:09
  TRACK 331 AUDIO
    TITLE "0:"
    INDEX 01 06:40:12
  TRACK 332 AUDIO
    TITLE "21:cjc024_0966"
    INDEX 01 06:40:38
  TRACK 333 AUDIO
    TITLE "0:"
    INDEX 01 06:43:26
  TRACK 334 AUDIO
    TITLE "20:cjc024_0967"
    INDEX 01 06:44:26
  TRACK 335 AUDIO
    TITLE "0:"
    INDEX 01 06:45:37
  TRACK 336 AUDIO
    TITLE "21:cjc024_0968"
    INDEX 01 06:45:66
  TRACK 337 AUDIO
    TITLE "0:"
    INDEX 01 06:48:57
  TRACK 338 AUDIO
    TITLE "20:cjc024_0969"
    INDEX 01 06:49:56
  TRACK 339 AUDIO
    TITLE "0:"
    INDEX 01 06:50:50
  TRACK 340 AUDIO
    TITLE "21:cjc024_0970"
    INDEX 01 06:51:04
  TRACK 341 AUDIO
    TITLE "0:"
    INDEX 01 06:53:42
  TRACK 342 AUDIO
    TITLE "20:cjc024_0971"
    INDEX 01 06:54:57
  TRACK 343 AUDIO
    TITLE "0:"
    INDEX 01 06:56:00
  TRACK 344 AUDIO
    TITLE "21:cjc024_0972"
    INDEX 01 06:56:35
  TRACK 345 AUDIO
    TITLE "0:"
    INDEX 01 06:59:21
  TRACK 346 AUDIO
    TITLE "20:cjc024_0973"
    INDEX 01 07:00:19
  TRACK 347 AUDIO
    TITLE "0:"
    INDEX 01 07:01:28
  TRACK 348 AUDIO
    TITLE "21:cjc024_0974"
    INDEX 01 07:01:52
  TRACK 349 AUDIO
    TITLE "0:"
    INDEX 01 07:03:74
  TRACK 350 AUDIO
    TITLE "20:cjc024_0975"
    INDEX 01 07:05:06
  TRACK 351 AUDIO
    TITLE "0:"
    INDEX 01 07:06:25
  TRACK 352 AUDIO
    TITLE "21:cjc024_0976"
    INDEX 01 07:06:49
  TRACK 353 AUDIO
    TITLE "0:"
    INDEX 01 07:09:28
  TRACK 354 AUDIO
    TITLE "20:cjc024_0977"
    INDEX 01 07:10:27
  TRACK 355 AUDIO
    TITLE "0:"
    INDEX 01 07:11:28
  TRACK 356 AUDIO
    TITLE "21:cjc024_0978"
    INDEX 01 07:11:52
  TRACK 357 AUDIO
    TITLE "0:"
    INDEX 01 07:14:27
  TRACK 358 AUDIO
    TITLE "20:cjc024_0979"
    INDEX 01 07:15:34
  TRACK 359 AUDIO
    TITLE "0:"
    INDEX 01 07:16:36
  TRACK 360 AUDIO
    TITLE "21:cjc024_0980"
    INDEX 01 07:16:61
  TRACK 361 AUDIO
    TITLE "0:"
    INDEX 01 07:19:03
  TRACK 362 AUDIO
    TITLE "20:cjc024_0981"
    INDEX 01 07:20:00
  TRACK 363 AUDIO
    TITLE "0:"
    INDEX 01 07:21:25
  TRACK 364 AUDIO
    TITLE "21:cjc024_0982"
    INDEX 01 07:21:48
  TRACK 365 AUDIO
    TITLE "0:"
    INDEX 01 07:23:69
  TRACK 366 AUDIO
    TITLE "20:cjc024_0983"
    INDEX 01 07:24:70
  TRACK 367 AUDIO
    TITLE "0:"
    INDEX 01 07:26:12
  TRACK 368 AUDIO
    TITLE "21:cjc024_0984"
    INDEX 01 07:26:38
  TRACK 369 AUDIO
    TITLE "0:"
    INDEX 01 07:28:66
  TRACK 370 AUDIO
    TITLE "20:cjc024_0985"
    INDEX 01 07:29:68
  TRACK 371 AUDIO
    TITLE "0:"
    INDEX 01 07:30:59
  TRACK 372 AUDIO
    TITLE "21:cjc024_0986"
    INDEX 01 07:31:10
  TRACK 373 AUDIO
    TITLE "0:"
    INDEX 01 07:33:40
  TRACK 374 AUDIO
    TITLE "20:cjc024_0987"
    INDEX 01 07:34:41
  TRACK 375 AUDIO
    TITLE "0:"
    INDEX 01 07:35:58
  TRACK 376 AUDIO
    TITLE "21:cjc024_0988"
    INDEX 01 07:36:11
  TRACK 377 AUDIO
    TITLE "0:"
    INDEX 01 07:38:63
  TRACK 378 AUDIO
    TITLE "20:cjc024_0989"
    INDEX 01 07:39:62
  TRACK 379 AUDIO
    TITLE "0:"
    INDEX 01 07:40:73
  TRACK 380 AUDIO
    TITLE "21:cjc024_0990"
    INDEX 01 07:41:22
  TRACK 381 AUDIO
    TITLE "0:"
    INDEX 01 07:43:68
  TRACK 382 AUDIO
    TITLE "20:cjc024_0991"
    INDEX 01 07:44:67
  TRACK 383 AUDIO
    TITLE "0:"
    INDEX 01 07:46:17
  TRACK 384 AUDIO
    TITLE "21:cjc024_0992"
    INDEX 01 07:46:42
  TRACK 385 AUDIO
    TITLE "0:"
    INDEX 01 07:49:11
  TRACK 386 AUDIO
    TITLE "20:cjc024_0993"
    INDEX 01 07:50:13
  TRACK 387 AUDIO
    TITLE "0:"
    INDEX 01 07:51:26
  TRACK 388 AUDIO
    TITLE "21:cjc024_0994"
    INDEX 01 07:51:50
  TRACK 389 AUDIO
    TITLE "0:"
    INDEX 01 07:53:74
  TRACK 390 AUDIO
    TITLE "20:cjc024_0995"
    INDEX 01 07:55:00
  TRACK 391 AUDIO
    TITLE "0:"
    INDEX 01 07:56:21
  TRACK 392 AUDIO
    TITLE "21:cjc024_0996"
    INDEX 01 07:56:45
  TRACK 393 AUDIO
    TITLE "0:"
    INDEX 01 07:59:00
  TRACK 394 AUDIO
    TITLE "20:cjc024_0997"
    INDEX 01 08:00:00
  TRACK 395 AUDIO
    TITLE "0:"
    INDEX 01 08:01:13
  TRACK 396 AUDIO
    TITLE "21:cjc024_0998"
    INDEX 01 08:01:38
  TRACK 397 AUDIO
    TITLE "0:"
    INDEX 01 08:03:57
  TRACK 398 AUDIO
    TITLE "20:cjc024_0999"
    INDEX 01 08:04:56
  TRACK 399 AUDIO
    TITLE "0:"
    INDEX 01 08:05:63
  TRACK 400 AUDIO
    TITLE "21:cjc024_1000"
    INDEX 01 08:06:12
  TRACK 401 AUDIO
    TITLE "0:"
    INDEX 01 08:08:73
